<?xml version="1.0" encoding="utf-8"?>
<!-- Generator: Adobe Illustrator 18.1.1, SVG Export Plug-In . SVG Version: 6.00 Build 0)  -->
<svg version="1.1" id="レイヤー_1" xmlns="http://www.w3.org/2000/svg" xmlns:xlink="http://www.w3.org/1999/xlink" x="0px"
	 y="0px" viewBox="0 0 1280 1024" enable-background="new 0 0 1280 1024" xml:space="preserve">
<path fill="#FFE9BB" stroke="#231815" stroke-linecap="round" stroke-miterlimit="10" d="M765.2,549.3c26.9-25.8,65.1-67,70.1-62.4
	c5,4.6,4,18.5,0,27.1c-6.4,13.9-40.7,28.3-66.3,42.5"/>
<path fill="#FFE9BB" stroke="#231815" stroke-linecap="round" stroke-miterlimit="10" d="M666,640.3c2.1,24.1,4,46.5,6,69.3
	c2,12,15,8.8,14.7,0l1.7-68.4"/>
<path fill="#FFE9BB" stroke="#231815" stroke-linecap="round" stroke-miterlimit="10" d="M475.4,545.2c0,0,9.3,158.6,9.4,160.1
	c0.5,7.2,14.5,12.8,18.2,2c2.7-23.4,5.6-53.2,6.6-85.1c20.1,6,65.9,4.7,63.8,4.3c0,0-1.9,0.2,3.4,77.5c1.5,21.5,15.1,17.8,16.8,3
	c0.5-3.7,1.7-8.3,1.9-12.7c1.3-21.7,8.2-70.4,7.6-68c8,12.2,118,18.4,130.3,15.3c2.5-0.6,0.7,9.5,2.7,71.7
	c0.7,15.3,15.2,19.5,18.2,0.4c2.3-29.9,5.1-74.4,5.1-74.4c19.3-27.7,34.7-111.7-45.8-116.3"/>
<path fill="#FFE9BB" stroke="#231815" stroke-linecap="round" stroke-miterlimit="10" d="M562,220.7c124-6.1,254.4,97.7,245,191.7
	c-4.9,48.7-46.8,88.4-100.4,114.1c-43.8,21-95.4,32.7-141.3,32.5c-27.3-0.1-57.8-4.5-87.5-13c-5.2-1.5-10.4-3.1-15.5-4.8
	c-9.5-3.2-18.8-6.8-27.7-10.9c-48.5-21.9-87.8-55.9-95.9-101.3C322.1,336.3,441.6,226.6,562,220.7z"/>
<path fill="#C69C6D" stroke="#231815" stroke-linecap="round" stroke-miterlimit="10" d="M720.3,247.3c22.3,2.8,31.9,23.7,58.3,60
	c47.4,65.2,63.8,63.5,66.7,90c4,37.8-24.7,85.8-55,88.3c-62.1,5.1-149.8-178.6-108.3-225C690.8,250.8,706.8,245.6,720.3,247.3z"/>
<path fill="#C69C6D" stroke="#231815" stroke-linecap="round" stroke-miterlimit="10" d="M393.7,259c-3.5,1.1-16.3,5.7-33.2,29.2
	c-20.8,29-12.9,38.1-30.1,63.4c-19,28-34.8,26-41.9,49.4c-6.4,21.1,1.2,40.3,3.6,46.3c1.3,3.2,12.9,31.5,43.3,44.1
	c0.8,0.3,17.4,7.1,30,5.9c60.6-5.5,116.7-200.9,70.8-233.9C426.1,256.2,408.1,254.3,393.7,259z"/>
<path fill="#FFFFFF" stroke="#231815" stroke-linecap="round" stroke-miterlimit="10" d="M380.3,249"/>
<path fill="#FFFFFF" stroke="#231815" stroke-linecap="round" stroke-miterlimit="10" d="M-48,295.7"/>
<path fill="#FFFFFF" stroke="#231815" stroke-linecap="round" stroke-miterlimit="10" d="M-148,465.7"/>
<path fill="#FFFFFF" stroke="#231815" stroke-linecap="round" stroke-miterlimit="10" d="M-34.7,432.3"/>
<circle stroke="#231815" stroke-linecap="round" stroke-miterlimit="10" cx="480.5" cy="425.2" r="18.2"/>
<circle stroke="#231815" stroke-linecap="round" stroke-miterlimit="10" cx="640" cy="425.2" r="18.2"/>
<g>
	<g>
		<path fill="#231815" d="M561,458.9C561,458.9,561,459,561,458.9c0.5-0.2,1.1-0.4,1.7-0.6c1.1,0.4,0.4,0.5,0.3-0.2
			c-0.1-0.5-0.6-1.2-0.8-1.6c-0.6-1.3-1.3-2.6-1.9-3.8c-0.7-1.4-1.5-4-3.4-3.6c-0.5,0.1-0.9,0.6-1,1c-0.3,1.1,0.4,2.5,0.7,3.5
			c1.3,4.1,2.8,8.2,4.4,12.2c2.8,7.4,7,15,14.3,18.7c10,5.1,23.5-0.7,33-4.7c1.8-0.7,1-3.6-0.8-2.9c-6.2,2.6-12.8,4.9-19.4,6
			c-11.3,2-18.6-5.1-23-15c-2.2-5-3.2-11-5.8-15.8c-0.2-0.3-0.1-1.1-0.4-1.4c-0.6-0.5-2.2-0.7-2.5,0.8c-0.1,0.3,0.9,1.6,1,1.8
			c1.1,2,2.3,7,4.7,7.9c0.6,0.2,1.3-0.2,1.7-0.7c0,0,0,0,0,0C564.7,458.8,562.1,457.3,561,458.9L561,458.9z"/>
	</g>
</g>
<g>
	<g>
		<path fill="#231815" d="M558.2,460.9c0.2,8.9-6.2,16.5-14.4,19.3c-9.5,3.3-19.8,0.3-28.4-4.2c-1.7-0.9-3.2,1.7-1.5,2.6
			c9.8,5.1,21.7,8.3,32.3,3.9c8.7-3.6,15.2-12,14.9-21.6C561.2,459,558.2,459,558.2,460.9L558.2,460.9z"/>
	</g>
</g>
<path stroke="#231815" stroke-linecap="round" stroke-miterlimit="10" d="M559.6,459.7c-9.1-0.4-17.4-8.1-15.9-13.9
	c1.4-5,9.7-7.2,15.1-7.4c7.3-0.3,17.1,3,18,8.6C577.9,452.8,568.7,460,559.6,459.7z"/>
<path fill="#FFE9BB" stroke="#231815" stroke-linecap="round" stroke-miterlimit="10" d="M434.6,666.6"/>
<path fill="#FFE9BB" stroke="#231815" stroke-linecap="round" stroke-miterlimit="10" d="M469.7,707"/>
</svg>
