<?xml version="1.0" encoding="utf-8"?>
<!-- Generator: Adobe Illustrator 18.1.1, SVG Export Plug-In . SVG Version: 6.00 Build 0)  -->
<svg version="1.1" id="レイヤー_1" xmlns="http://www.w3.org/2000/svg" xmlns:xlink="http://www.w3.org/1999/xlink" x="0px"
	 y="0px" viewBox="0 0 1280 1024" enable-background="new 0 0 1280 1024" xml:space="preserve">
<path fill="#FFFFFF" stroke="#231815" stroke-linecap="round" stroke-miterlimit="10" d="M-48,295.7"/>
<path fill="#FFFFFF" stroke="#231815" stroke-linecap="round" stroke-miterlimit="10" d="M-148,465.7"/>
<path fill="#FFFFFF" stroke="#231815" stroke-linecap="round" stroke-miterlimit="10" d="M-34.7,432.3"/>
<g>
	<path fill="#FFE9BB" stroke="#231815" stroke-linecap="round" stroke-miterlimit="10" d="M765.2,549.3c26.9-25.8,65.1-67,70.1-62.4
		c5,4.6,4,18.5,0,27.1c-6.4,13.9-40.7,28.3-66.3,42.5"/>
	<path fill="#FFE9BB" stroke="#231815" stroke-linecap="round" stroke-miterlimit="10" d="M666,640.3c2.1,24.1,4,46.5,6,69.3
		c2,12,15,8.8,14.7,0l1.7-68.4"/>
	<path fill="#FFE9BB" stroke="#231815" stroke-linecap="round" stroke-miterlimit="10" d="M475.4,545.2c0,0,9.3,158.6,9.4,160.1
		c0.5,7.2,14.5,12.8,18.2,2c2.7-23.4,5.6-53.2,6.6-85.1c20.1,6,65.9,4.7,63.8,4.3c0,0-1.9,0.2,3.4,77.5c1.5,21.5,15.1,17.8,16.8,3
		c0.5-3.7,1.7-8.3,1.9-12.7c1.3-21.7,8.2-70.4,7.6-68c8,12.2,118,18.4,130.3,15.3c2.5-0.6,0.7,9.5,2.7,71.7
		c0.7,15.3,15.2,19.5,18.2,0.4c2.3-29.9,5.1-74.4,5.1-74.4c19.3-27.7,34.7-111.7-45.8-116.3"/>
	<path fill="#FFFFFF" stroke="#231815" stroke-linecap="round" stroke-miterlimit="10" d="M380.3,249"/>
	<path fill="#FFE9BB" stroke="#231815" stroke-linecap="round" stroke-miterlimit="10" d="M562,220.7c124-6.1,254.4,97.7,245,191.7
		c-4.9,48.7-46.8,88.4-100.4,114.1c-43.8,21-95.4,32.7-141.3,32.5c-27.3-0.1-57.8-4.5-87.5-13c-5.2-1.5-10.4-3.1-15.5-4.8
		c-9.5-3.2-18.8-6.8-27.7-10.9c-48.5-21.9-87.8-55.9-95.9-101.3C322.1,336.3,441.6,226.6,562,220.7z"/>
	<path fill="#C69C6D" stroke="#231815" stroke-linecap="round" stroke-miterlimit="10" d="M720.3,247.3c22.3,2.8,31.9,23.7,58.3,60
		c47.4,65.2,63.8,63.5,66.7,90c4,37.8-24.7,85.8-55,88.3c-62.1,5.1-149.8-178.6-108.3-225C690.8,250.8,706.8,245.6,720.3,247.3z"/>
	<path fill="#C69C6D" stroke="#231815" stroke-linecap="round" stroke-miterlimit="10" d="M393.7,259c-3.5,1.1-16.3,5.7-33.2,29.2
		c-20.8,29-12.9,38.1-30.1,63.4c-19,28-34.8,26-41.9,49.4c-6.4,21.1,1.2,40.3,3.6,46.3c1.3,3.2,12.9,31.5,43.3,44.1
		c0.8,0.3,17.4,7.1,30,5.9c60.6-5.5,116.7-200.9,70.8-233.9C426.1,256.2,408.1,254.3,393.7,259z"/>
	<circle stroke="#231815" stroke-linecap="round" stroke-miterlimit="10" cx="480.5" cy="425.2" r="18.2"/>
	<circle stroke="#231815" stroke-linecap="round" stroke-miterlimit="10" cx="640" cy="425.2" r="18.2"/>
	<path stroke="#231815" stroke-linecap="round" stroke-miterlimit="10" d="M558.4,466.4c-9.1-0.4-17.4-8.1-15.9-13.9
		c1.4-5,9.7-7.2,15.1-7.4c7.3-0.3,17.1,3,18,8.6C576.6,459.6,567.5,466.7,558.4,466.4z"/>
	<path fill="#FFE9BB" stroke="#231815" stroke-linecap="round" stroke-miterlimit="10" d="M434.6,666.6"/>
	<path fill="#FFE9BB" stroke="#231815" stroke-linecap="round" stroke-miterlimit="10" d="M469.7,707"/>
	<path fill="#FFB9F7" stroke="#000000" stroke-linecap="round" stroke-miterlimit="10" d="M580.8,487.1l-3.2,5.9
		c-3.1,4.3-4.5,9-13.5,11.7c-4.1,0.6-8.2,1-12.7-2.2c-5.9-6.4-8.6-11.1-9.2-14.8l5.5-5.6l3.7-5.8l4.4-7.2l1.6-2.7l4.1,4.8l8.7,9.8
		l7,4.8L580.8,487.1z"/>
	<g>
		<g>
			<path fill="#231815" d="M513.4,483.9c7.7,5,17.1,10,26.5,6.6c9.3-3.4,14-15.5,18.8-23.3c-0.8,0.1-1.6,0.2-2.4,0.3
				c8.1,8.9,16.6,23.2,30.7,21.6c7.2-0.8,13.5-7.5,18-12.8c1.2-1.5-0.9-3.6-2.1-2.1c-3.9,4.7-9.3,10.8-15.6,11.8
				c-12.9,2.3-21.6-12.6-28.9-20.7c-0.7-0.7-1.9-0.5-2.4,0.3c-4.1,6.8-8.5,17.8-16,21.5c-8.7,4.2-18-1.2-25.2-5.8
				C513.3,480.2,511.8,482.8,513.4,483.9L513.4,483.9z"/>
		</g>
	</g>
</g>
</svg>
